<?xml version="1.0" encoding="UTF-8"?><svg id="a" xmlns="http://www.w3.org/2000/svg" viewBox="0 0 700 300"><path d="M82.42,55.17c-1.9,1.75-3.97,2.7-6.67,2.7-2.54,0-4.76-.95-6.51-2.7-1.91-1.75-2.7-3.97-2.7-6.51,0-2.7.79-4.92,2.7-6.67,1.75-1.75,3.97-2.7,6.51-2.7,2.7,0,4.76.95,6.67,2.7,1.75,1.75,2.7,3.97,2.7,6.67,0,2.54-.95,4.76-2.7,6.51Z"/><path d="M82.42,89.3c-1.9,1.75-3.97,2.7-6.67,2.7-2.54,0-4.76-.95-6.51-2.7-1.91-1.9-2.7-3.97-2.7-6.67,0-2.54.79-4.76,2.7-6.51,1.75-1.9,3.97-2.7,6.51-2.7,2.7,0,4.76.79,6.67,2.7,1.75,1.75,2.7,3.97,2.7,6.51,0,2.7-.95,4.76-2.7,6.67Z" style="fill:#f35454;"/><polygon points="96.71 146.62 74.96 123.75 143.55 58.82 165.3 81.68 96.71 146.62"/><path d="M287.1,142.49l-26.99-11.27,21.91-52.39c.32-.79.64-1.43.64-2.38,0-1.43-.64-2.86-1.91-4.13-1.11-1.11-2.54-1.75-4.13-1.75h-50.17v-26.99h92.88v21.12l-32.23,77.8Z"/><path d="M463.13,97.87l-33.5-3.81c-1.91-.32-3.49.16-4.76,1.43-1.43,1.11-2.06,2.7-2.06,4.6v43.5h-29.21V32.78h29.21v35.56l43.34,5.08-3.02,24.45Z"/><path d="M600.18,147.73l-30.01-9.84,25.72-72.24c.16-.48.32-1.11.32-1.59,0-3.18-1.59-4.76-4.92-4.76h-51.12v-26.99h93.36v21.91l-33.34,93.51ZM576.23,98.5h-30v-18h30v18Z"/><path d="M94.05,228.04c-1.37-3.89-3.89-5.9-7.42-6.12-1.58-.07-2.95.36-4.25,1.22-1.22.86-1.87,2.09-1.94,3.6-.07,2.66,2.3,4.9,6.98,6.77,5.18,2.02,8.93,4.18,11.16,6.48,2.88,2.95,4.32,6.91,4.32,11.88-.07,4.82-1.87,8.79-5.4,11.74-3.31,2.74-7.49,4.1-12.46,4.1-4.39,0-8.28-1.22-11.59-3.82-3.1-2.38-5.4-5.69-6.91-10.01l9.94-4.82c.72,1.8,1.73,3.24,2.95,4.46,1.51,1.51,3.1,2.23,4.75,2.23,3.67.07,5.54-1.44,5.54-4.39,0-1.87-.79-3.46-2.3-4.75-1.01-.72-2.66-1.58-4.97-2.52-4.54-1.8-7.85-3.75-9.86-5.76-3.1-2.95-4.61-6.77-4.61-11.52s1.8-8.71,5.33-11.52c3.38-2.66,7.49-4.03,12.39-3.96,9.5.07,15.55,4.32,18.07,12.75l-9.72,3.96Z"/><path d="M183.02,265.05v-19.8h-14.33c-.79,0-1.51.29-2.09.86-.65.58-.94,1.3-.94,2.16v16.71h-10.66v-48.75h10.66v17.71h14.33c.79,0,1.51-.29,2.09-.86.65-.58.94-1.3.94-2.16v-14.69h13.25v48.82h-13.25Z"/><path d="M247.51,264.76v-47.45h14.33v47.45h-14.33Z"/><path d="M330.64,225.02c-.79,0-1.51.36-2.09.94-.65.58-.94,1.3-.94,2.09v37.16h-13.54v-51.63h37.3v11.45h-20.74Z"/><rect x="333.91" y="237.32" width="11.21" height="6.21" style="fill:#f35454;"/><path d="M425.87,227.54c-.79,0-1.51.29-2.16.86-.58.65-.94,1.37-.94,2.23v34.64h-14.91v-37.08h-13.25v-11.38h41.33v10.73h-10.08Z"/><path d="M537.23,264.76h-10.01l-10.15-23.4c-.36-.86-1.01-1.3-1.94-1.3s-1.58.5-1.94,1.37l-9.29,23.19h-11.3l-13.39-45.22,12.53-3.53,8.86,29.09,10.51-26.14h10.73l9,21.67c.29.79.94,1.22,1.8,1.22,1.01,0,1.66-.43,1.87-1.3l8.5-23.55,10.01,3.17-15.77,44.72Z"/><path d="M627.33,259.44c-4.1,4.1-9.5,6.12-16.2,6.12-5.76,0-10.66-1.8-14.76-5.33-4.75-4.25-7.13-10.15-7.13-17.64,0-6.84,2.02-12.31,6.05-16.56,4.03-4.25,9.43-6.41,16.2-6.41,5.62,0,10.51,1.87,14.62,5.54,4.97,4.46,7.42,10.44,7.42,18.07,0,6.7-2.09,12.1-6.19,16.2ZM618.47,234.67c-1.73-2.74-4.1-4.03-7.27-3.96-5.91.14-8.93,4.25-9,12.31,0,3.02.72,5.76,2.16,8.14,1.66,2.81,3.89,4.18,6.7,4.18,3.17,0,5.54-1.3,7.27-3.89,1.37-2.16,2.16-4.97,2.16-8.35.07-3.24-.65-6.05-2.02-8.42Z"/><circle cx="325.03" cy="178" r="7.5"/><circle cx="350.03" cy="178" r="7.5" style="fill:#f35454;"/><circle cx="375.03" cy="178" r="7.5"/></svg>